<svg width="25" height="24" viewBox="0 0 25 24" fill="none" xmlns="http://www.w3.org/2000/svg">
<path d="M9.79289 19.7071C10.1834 20.0976 10.8166 20.0976 11.2071 19.7071C11.5976 19.3166 11.5976 18.6834 11.2071 18.2929L9.79289 19.7071ZM3.5 12L2.79289 11.2929C2.40237 11.6834 2.40237 12.3166 2.79289 12.7071L3.5 12ZM11.2071 5.70711C11.5976 5.31658 11.5976 4.68342 11.2071 4.29289C10.8166 3.90237 10.1834 3.90237 9.79289 4.29289L11.2071 5.70711ZM21.5 13C22.0523 13 22.5 12.5523 22.5 12C22.5 11.4477 22.0523 11 21.5 11V13ZM11.2071 18.2929L4.20711 11.2929L2.79289 12.7071L9.79289 19.7071L11.2071 18.2929ZM4.20711 12.7071L11.2071 5.70711L9.79289 4.29289L2.79289 11.2929L4.20711 12.7071ZM3.5 13L21.5 13V11L3.5 11L3.5 13Z" fill="#121212"/>
</svg>
