<svg width="24" height="24" viewBox="0 0 24 24" fill="none" xmlns="http://www.w3.org/2000/svg">
<path d="M13.0605 2.25021C12.7792 1.96901 12.3977 1.81104 12 1.81104C11.6022 1.81104 11.2208 1.96901 10.9395 2.25021L0.968971 12.2192C0.899239 12.2889 0.843925 12.3717 0.806186 12.4628C0.768447 12.5539 0.749023 12.6516 0.749023 12.7502C0.749023 12.8488 0.768447 12.9465 0.806186 13.0376C0.843925 13.1287 0.899239 13.2115 0.968971 13.2812C1.1098 13.422 1.30081 13.5012 1.49997 13.5012C1.59859 13.5012 1.69624 13.4817 1.78735 13.444C1.87846 13.4063 1.96124 13.3509 2.03097 13.2812L12 3.31071L21.969 13.2812C22.1098 13.422 22.3008 13.5012 22.5 13.5012C22.6991 13.5012 22.8901 13.422 23.031 13.2812C23.1718 13.1404 23.2509 12.9494 23.2509 12.7502C23.2509 12.5511 23.1718 12.36 23.031 12.2192L19.5 8.68971V3.75021C19.5 3.5513 19.421 3.36054 19.2803 3.21988C19.1396 3.07923 18.9489 3.00021 18.75 3.00021H17.25C17.0511 3.00021 16.8603 3.07923 16.7196 3.21988C16.579 3.36054 16.5 3.5513 16.5 3.75021V5.68971L13.0605 2.25021Z" fill="#0B56B8"/>
<path d="M12 4.93994L21 13.9399V20.2504C21 20.8472 20.7629 21.4195 20.341 21.8414C19.919 22.2634 19.3467 22.5004 18.75 22.5004H5.25C4.65326 22.5004 4.08097 22.2634 3.65901 21.8414C3.23705 21.4195 3 20.8472 3 20.2504V13.9399L12 4.93994Z" fill="#0B56B8"/>
</svg>
