<svg width="24" height="24" viewBox="0 0 24 24" fill="none" xmlns="http://www.w3.org/2000/svg">
<g clip-path="url(#clip0_2679_1216)">
<path d="M23.9457 1.02871C24.0002 0.892413 24.0136 0.743103 23.9841 0.599288C23.9546 0.455474 23.8835 0.32348 23.7797 0.21967C23.6759 0.11586 23.5439 0.0448002 23.4001 0.015299C23.2563 -0.0142021 23.107 -0.000846891 22.9707 0.0537091L1.15016 8.78221H1.14866L0.47066 9.05221C0.342245 9.10343 0.230488 9.18915 0.147733 9.2999C0.0649785 9.41066 0.0144468 9.54213 0.00171999 9.67979C-0.0110068 9.81746 0.0145666 9.95597 0.0756153 10.08C0.136664 10.2041 0.230812 10.3088 0.34766 10.3827L0.96266 10.7727L0.96416 10.7757L8.45666 15.5427L13.2237 23.0352L13.2267 23.0382L13.6167 23.6532C13.6908 23.7696 13.7956 23.8633 13.9196 23.924C14.0435 23.9846 14.1818 24.0099 14.3192 23.997C14.4566 23.9842 14.5878 23.9336 14.6983 23.851C14.8088 23.7684 14.8944 23.6569 14.9457 23.5287L23.9457 1.02871ZM21.1962 3.86371L9.95516 15.1047L9.63266 14.5977C9.57357 14.5047 9.4947 14.4258 9.40166 14.3667L8.89466 14.0442L20.1357 2.80321L21.9027 2.09671L21.1962 3.86371Z" fill="#4B4B4B"/>
</g>
<defs>
<clipPath id="clip0_2679_1216">
<rect width="24" height="24" fill="white"/>
</clipPath>
</defs>
</svg>
