<svg width="293" height="293" viewBox="0 0 293 293" fill="none" xmlns="http://www.w3.org/2000/svg">
<circle cx="146.5" cy="146.5" r="146" fill="#0B56B8"/>
<mask id="mask0_1873_2138" style="mask-type:alpha" maskUnits="userSpaceOnUse" x="70" y="70" width="153" height="153">
<rect x="70.3262" y="70.3262" width="152.348" height="152.348" fill="#D9D9D9"/>
</mask>
<g mask="url(#mask0_1873_2138)">
<path d="M130.948 166.496L184.746 112.698C186.016 111.428 187.523 110.793 189.269 110.793C191.014 110.793 192.522 111.428 193.792 112.698C195.061 113.967 195.696 115.475 195.696 117.221C195.696 118.966 195.061 120.474 193.792 121.743L135.392 180.143C134.122 181.413 132.641 182.048 130.948 182.048C129.255 182.048 127.774 181.413 126.505 180.143L99.209 152.848C97.9395 151.578 97.3311 150.071 97.384 148.325C97.4369 146.579 98.0982 145.072 99.3677 143.802C100.637 142.533 102.145 141.898 103.891 141.898C105.636 141.898 107.144 142.533 108.413 143.802L130.948 166.496Z" fill="#FBFBFB"/>
</g>
</svg>
