<svg width="44" height="44" viewBox="0 0 44 44" fill="none" xmlns="http://www.w3.org/2000/svg">
<rect width="44" height="44" rx="22" fill="#0B56B8"/>
<path d="M26.052 11.7871L27.018 12.0481C28.1994 12.3678 29.2763 12.9916 30.1413 13.8573C31.0064 14.7231 31.6293 15.8005 31.948 16.9821L32.208 17.9471L30.278 18.4681L30.017 17.5031C29.7893 16.6591 29.3442 15.8895 28.7262 15.2712C28.1082 14.6528 27.3389 14.2073 26.495 13.9791L25.53 13.7171L26.052 11.7871ZM11 12.0001H19.58L21.067 18.6901L19.207 20.5501C20.3007 22.2521 21.7477 23.6989 23.45 24.7921L25.31 22.9331L32 24.4201V33.0001H31C27.1504 33.0067 23.3814 31.8965 20.15 29.8041C17.7673 28.2621 15.7381 26.2329 14.196 23.8501C12.1037 20.6187 10.9935 16.8498 11 13.0001V12.0001ZM13.027 14.0001C13.1955 17.12 14.1778 20.1415 15.876 22.7641C17.2644 24.9091 19.0911 26.7358 21.236 28.1241C23.8586 29.8224 26.8801 30.8046 30 30.9731V26.0241L25.947 25.1241L23.773 27.2991L23.11 26.9221C20.5927 25.4916 18.5086 23.4075 17.078 20.8901L16.701 20.2271L18.876 18.0531L17.976 14.0001H13.027ZM25.138 15.1651L26.104 15.4261C26.6947 15.5859 27.2332 15.8979 27.6657 16.3307C28.0982 16.7636 28.4097 17.3023 28.569 17.8931L28.829 18.8581L26.899 19.3791L26.638 18.4141C26.5696 18.1609 26.436 17.93 26.2506 17.7446C26.0651 17.5591 25.8342 17.4255 25.581 17.3571L24.616 17.0961L25.138 15.1651Z" fill="#FBFBFB"/>
</svg>
