<svg width="741" height="864" viewBox="0 0 741 864" fill="none" xmlns="http://www.w3.org/2000/svg">
<path d="M-7.71502 470.061C27.4828 459.235 93.5437 457.633 76.2051 537.833C58.8664 618.032 72.91 609.656 127.328 590.566C181.746 571.476 204.997 600.955 205.214 633.839C205.486 674.945 200.936 700.708 254.655 693.391C308.374 686.075 344.446 717.717 370.215 775.266C395.984 832.815 413.464 813.598 432.475 805.92C451.486 798.241 487.169 806.077 483.985 847.517C480.801 888.958 497.593 920.654 547.84 910.533C598.087 900.412 603.129 914.297 615.613 939.097C628.096 963.897 609.489 988.122 642.232 994.939C674.975 1001.76 721.612 985.448 739.554 999.937" stroke="#E7EEF8" stroke-width="2" stroke-linecap="round"/>
<path d="M-25.4347 495.194C9.76307 484.368 75.824 482.766 58.4853 562.965C41.1466 643.165 55.1903 634.789 109.608 615.698C164.026 596.608 187.277 626.087 187.495 658.972C187.766 700.077 183.216 725.841 236.935 718.524C290.655 711.207 326.726 742.85 352.495 800.399C378.265 857.947 395.745 838.731 414.755 831.052C433.766 823.374 469.449 831.209 466.265 872.65C463.081 914.091 479.874 945.787 530.12 935.666C580.367 925.545 585.41 939.43 597.893 964.23C610.376 989.03 591.769 1013.25 624.513 1020.07C657.256 1026.89 703.892 1010.58 721.834 1025.07" stroke="#B3CBE9" stroke-width="2" stroke-linecap="round"/>
<path d="M-43.1545 520.326C-7.95666 509.5 58.1043 507.898 40.7656 588.098C23.4269 668.297 37.4706 659.921 91.8884 640.831C146.306 621.741 169.557 651.22 169.775 684.104C170.046 725.21 165.496 750.973 219.216 743.657C272.935 736.34 309.007 767.983 334.776 825.531C360.545 883.08 378.025 863.864 397.036 856.185C416.046 848.507 451.729 856.342 448.545 897.783C445.361 939.223 462.154 970.92 512.401 960.799C562.647 950.677 567.69 964.562 580.173 989.362C592.656 1014.16 574.05 1038.39 606.793 1045.2C639.536 1052.02 686.173 1035.71 704.114 1050.2" stroke="#E7EEF8" stroke-width="2" stroke-linecap="round"/>
<path d="M-60.8742 545.459C-25.6764 534.633 40.3846 533.031 23.0459 613.23C5.70719 693.43 19.7509 685.054 74.1686 665.964C128.586 646.874 151.838 676.353 152.055 709.237C152.327 750.343 147.777 776.106 201.496 768.789C255.215 761.472 291.287 793.115 317.056 850.664C342.825 908.213 360.305 888.996 379.316 881.318C398.327 873.639 434.01 881.475 430.826 922.915C427.641 964.356 444.434 996.052 494.681 985.931C544.928 975.81 549.97 989.695 562.453 1014.49C574.937 1039.3 556.33 1063.52 589.073 1070.34C621.816 1077.15 668.453 1060.85 686.395 1075.34" stroke="#041E40" stroke-width="2" stroke-linecap="round"/>
<path d="M-78.5939 570.592C-43.3961 559.766 22.6648 558.163 5.32615 638.363C-12.0125 718.562 2.03113 710.186 56.4489 691.096C110.867 672.006 134.118 701.485 134.335 734.37C134.607 775.475 130.057 801.239 183.776 793.922C237.495 786.605 273.567 818.248 299.336 875.796C325.105 933.345 342.586 914.129 361.596 906.45C380.607 898.772 416.29 906.607 413.106 948.048C409.922 989.489 426.714 1021.18 476.961 1011.06C527.208 1000.94 532.25 1014.83 544.734 1039.63C557.217 1064.43 538.61 1088.65 571.353 1095.47C604.097 1102.29 650.733 1085.98 668.675 1100.47" stroke="#E7EEF8" stroke-width="2" stroke-linecap="round"/>
<path d="M-96.3137 595.724C-61.1158 584.898 4.94511 583.296 -12.3936 663.496C-29.7323 743.695 -15.6886 735.319 38.7292 716.229C93.147 697.139 116.398 726.618 116.616 759.502C116.887 800.608 112.337 826.371 166.056 819.054C219.776 811.738 255.847 843.38 281.617 900.929C307.386 958.478 324.866 939.261 343.876 931.583C362.887 923.905 398.57 931.74 395.386 973.181C392.202 1014.62 408.995 1046.32 459.241 1036.2C509.488 1026.08 514.531 1039.96 527.014 1064.76C539.497 1089.56 520.891 1113.78 553.634 1120.6C586.377 1127.42 633.014 1111.11 650.955 1125.6" stroke="#B3CBE9" stroke-width="2" stroke-linecap="round"/>
<path d="M-114.033 620.857C-78.8356 610.031 -12.7746 608.429 -30.1133 688.628C-47.452 768.828 -33.4083 760.452 21.0095 741.361C75.4272 722.271 98.6785 751.75 98.8959 784.635C99.1676 825.74 94.6174 851.504 148.337 844.187C202.056 836.87 238.128 868.513 263.897 926.062C289.666 983.61 307.146 964.394 326.157 956.716C345.167 949.037 380.851 956.872 377.666 998.313C374.482 1039.75 391.275 1071.45 441.522 1061.33C491.768 1051.21 496.811 1065.09 509.294 1089.89C521.778 1114.69 503.171 1138.92 535.914 1145.73C568.657 1152.55 615.294 1136.24 633.235 1150.73" stroke="#E7EEF8" stroke-width="2" stroke-linecap="round"/>
<path d="M-131.753 645.989C-96.5553 635.163 -30.4943 633.561 -47.833 713.761C-65.1717 793.96 -51.128 785.584 3.28973 766.494C57.7075 747.404 80.9588 776.883 81.1761 809.767C81.4478 850.873 76.8977 876.636 130.617 869.32C184.336 862.003 220.408 893.646 246.177 951.194C271.946 1008.74 289.426 989.527 308.437 981.848C327.448 974.17 363.131 982.005 359.947 1023.45C356.762 1064.89 373.555 1096.58 423.802 1086.46C474.049 1076.34 479.091 1090.23 491.575 1115.03C504.058 1139.83 485.451 1164.05 518.194 1170.87C550.937 1177.68 597.574 1161.38 615.516 1175.87" stroke="#E7EEF8" stroke-width="2" stroke-linecap="round"/>
<rect x="80.4863" width="577.009" height="691.216" rx="32" fill="#DAE6F4"/>
<circle cx="71.1816" cy="509.036" r="50" fill="white"/>
<circle cx="71.1816" cy="509.036" r="50" fill="white"/>
<circle cx="71.1816" cy="509.036" r="50" fill="white"/>
<circle cx="657.495" cy="50" r="50" fill="white"/>
<circle cx="657.495" cy="50" r="50" fill="white"/>
<circle cx="657.495" cy="50" r="50" fill="white"/>
<g clip-path="url(#clip0_474_327)">
<mask id="mask0_474_327" style="mask-type:luminance" maskUnits="userSpaceOnUse" x="41" y="479" width="61" height="61">
<path d="M101.153 479.066H41.2109V539.007H101.153V479.066Z" fill="white"/>
</mask>
<g mask="url(#mask0_474_327)">
<path d="M97.0423 508.954C97.0423 523.099 85.5754 534.566 71.4301 534.566C57.2853 534.566 45.8184 523.099 45.8184 508.954C45.8184 494.809 57.2853 483.342 71.4301 483.342C85.5754 483.342 97.0423 494.809 97.0423 508.954Z" fill="#FBDA74"/>
<path d="M78.3163 488.287C79 487.242 79.9378 486.475 81.0826 486.125C82.5667 485.671 84.1537 485.993 85.5913 486.897" stroke="#252B38" stroke-width="2.11914" stroke-miterlimit="10" stroke-linecap="round"/>
<path d="M64.3746 492.549C63.2233 492.065 62.0173 491.954 60.8723 492.304C59.3881 492.757 58.2524 493.912 57.5661 495.465" stroke="#252B38" stroke-width="2.11914" stroke-miterlimit="10" stroke-linecap="round"/>
<path d="M85.6646 515.163C86.8404 520.695 85.0965 525.753 81.7694 526.46C78.4422 527.167 74.7921 523.256 73.6162 517.724C72.4405 512.193 74.1843 507.135 77.5115 506.428C80.8386 505.721 84.4888 509.632 85.6646 515.163Z" fill="#252B38"/>
<path d="M59.4896 501.279C59.7983 504.041 61.581 506.11 63.4711 505.898C65.3613 505.687 66.6431 503.276 66.3342 500.514C66.0252 497.752 64.2425 495.684 62.3527 495.895C60.4625 496.106 59.1807 498.517 59.4896 501.279Z" fill="#252B38"/>
<path d="M87.7482 492.64C89.0368 495.102 88.7154 497.814 87.0304 498.695C85.345 499.577 82.9344 498.296 81.6457 495.833C80.3574 493.37 80.6785 490.659 82.3637 489.777C84.049 488.895 86.4595 490.177 87.7482 492.64Z" fill="#252B38"/>
</g>
</g>
<path d="M127.512 113.188V85.3083H135.072L142.432 105.548H141.512L148.832 85.3083H156.392V113.188H151.232V91.3483L151.712 91.4283L144.472 110.748H139.472L132.232 91.4283L132.672 91.3483V113.188H127.512ZM174.17 113.188L173.77 110.228V100.748C173.77 99.575 173.397 98.7083 172.65 98.1483C171.93 97.5616 170.943 97.2683 169.69 97.2683C168.65 97.2683 167.583 97.4816 166.49 97.9083C165.423 98.3083 164.477 98.8816 163.65 99.6283L161.13 96.2283C162.517 95.1083 163.93 94.3083 165.37 93.8283C166.837 93.3216 168.41 93.0683 170.09 93.0683C172.81 93.0683 174.93 93.7483 176.45 95.1083C177.97 96.4683 178.73 98.3483 178.73 100.748V113.188H174.17ZM168.21 113.588C166.77 113.588 165.477 113.322 164.33 112.788C163.21 112.255 162.317 111.495 161.65 110.508C161.01 109.522 160.69 108.388 160.69 107.108C160.69 105.962 160.917 104.988 161.37 104.188C161.85 103.362 162.477 102.735 163.25 102.308C163.917 101.908 164.65 101.628 165.45 101.468C166.277 101.308 167.157 101.228 168.09 101.228H174.21V104.908H168.81C168.383 104.908 167.957 104.948 167.53 105.028C167.13 105.082 166.783 105.228 166.49 105.468C166.223 105.655 166.023 105.895 165.89 106.188C165.757 106.455 165.69 106.762 165.69 107.108C165.69 107.855 165.983 108.455 166.57 108.908C167.157 109.362 167.943 109.588 168.93 109.588C169.81 109.588 170.61 109.402 171.33 109.028C172.077 108.628 172.663 108.095 173.09 107.428C173.543 106.735 173.77 105.948 173.77 105.068L175.09 107.708C174.743 109.095 174.21 110.228 173.49 111.108C172.797 111.962 171.997 112.588 171.09 112.988C170.183 113.388 169.223 113.588 168.21 113.588ZM196.726 113.188L191.006 104.188L187.926 107.628V101.428L195.486 93.4683H201.806L194.646 100.828L202.646 113.188H196.726ZM183.366 113.188V85.3083H188.366V113.188H183.366ZM213.338 113.588C211.631 113.588 210.164 113.308 208.938 112.748C207.711 112.188 206.698 111.442 205.898 110.508C205.124 109.548 204.551 108.468 204.178 107.268C203.804 106.042 203.618 104.762 203.618 103.428C203.618 102.148 203.804 100.895 204.178 99.6683C204.551 98.4416 205.111 97.335 205.858 96.3483C206.604 95.3616 207.564 94.575 208.738 93.9883C209.938 93.375 211.364 93.0683 213.018 93.0683C214.564 93.0683 215.911 93.335 217.058 93.8683C218.204 94.375 219.151 95.095 219.898 96.0283C220.644 96.935 221.204 98.0016 221.578 99.2283C221.978 100.455 222.178 101.762 222.178 103.148C222.178 103.335 222.164 103.602 222.138 103.948C222.138 104.268 222.111 104.615 222.058 104.988H208.578C208.711 106.402 209.231 107.468 210.138 108.188C211.071 108.908 212.231 109.268 213.618 109.268C214.631 109.268 215.618 109.095 216.578 108.748C217.538 108.375 218.391 107.855 219.138 107.188L221.618 110.548C220.684 111.268 219.804 111.855 218.978 112.308C218.151 112.762 217.284 113.082 216.378 113.268C215.498 113.482 214.484 113.588 213.338 113.588ZM217.258 102.508C217.311 102.295 217.351 102.082 217.378 101.868C217.431 101.655 217.458 101.455 217.458 101.268C217.458 100.708 217.351 100.188 217.138 99.7083C216.924 99.2016 216.631 98.7616 216.258 98.3883C215.884 98.015 215.431 97.735 214.898 97.5483C214.391 97.335 213.804 97.2283 213.138 97.2283C212.151 97.2283 211.324 97.4283 210.658 97.8283C209.991 98.2283 209.484 98.7483 209.138 99.3883C208.818 100.002 208.618 100.642 208.538 101.308H218.938L217.258 102.508ZM236.809 113.188V85.3083H244.369L251.729 105.548H250.809L258.129 85.3083H265.689V113.188H260.529V91.3483L261.009 91.4283L253.769 110.748H248.769L241.529 91.4283L241.969 91.3483V113.188H236.809ZM279.867 113.588C277.947 113.588 276.24 113.148 274.747 112.268C273.253 111.388 272.067 110.175 271.187 108.628C270.333 107.055 269.907 105.282 269.907 103.308C269.907 101.308 270.333 99.5483 271.187 98.0283C272.04 96.4816 273.213 95.2683 274.707 94.3883C276.227 93.5083 277.947 93.0683 279.867 93.0683C281.76 93.0683 283.453 93.5083 284.947 94.3883C286.44 95.2683 287.613 96.4816 288.467 98.0283C289.32 99.5483 289.747 101.308 289.747 103.308C289.747 105.282 289.32 107.042 288.467 108.588C287.613 110.135 286.44 111.362 284.947 112.268C283.453 113.148 281.76 113.588 279.867 113.588ZM279.867 109.228C280.88 109.228 281.747 108.988 282.467 108.508C283.213 108.028 283.773 107.348 284.147 106.468C284.547 105.588 284.747 104.535 284.747 103.308C284.747 102.055 284.547 101.002 284.147 100.148C283.773 99.2683 283.213 98.6016 282.467 98.1483C281.747 97.6683 280.88 97.4283 279.867 97.4283C278.827 97.4283 277.933 97.6683 277.187 98.1483C276.44 98.6016 275.867 99.2683 275.467 100.148C275.067 101.002 274.867 102.055 274.867 103.308C274.867 104.535 275.067 105.588 275.467 106.468C275.867 107.348 276.44 108.028 277.187 108.508C277.933 108.988 278.827 109.228 279.867 109.228ZM293.717 113.188V93.4683H298.717V97.9483L297.917 98.0283C298.264 96.8283 298.771 95.8683 299.437 95.1483C300.104 94.4283 300.877 93.9083 301.757 93.5883C302.637 93.2416 303.544 93.0683 304.477 93.0683C306.717 93.0683 308.464 93.7083 309.717 94.9883C310.997 96.2416 311.637 98.015 311.637 100.308V113.188H306.637V102.148C306.637 100.495 306.344 99.295 305.757 98.5483C305.171 97.775 304.251 97.3883 302.997 97.3883C302.037 97.3883 301.237 97.615 300.597 98.0683C299.984 98.495 299.517 99.175 299.197 100.108C298.877 101.042 298.717 102.255 298.717 103.748V113.188H293.717ZM325.095 113.588C323.389 113.588 321.922 113.308 320.695 112.748C319.469 112.188 318.455 111.442 317.655 110.508C316.882 109.548 316.309 108.468 315.935 107.268C315.562 106.042 315.375 104.762 315.375 103.428C315.375 102.148 315.562 100.895 315.935 99.6683C316.309 98.4416 316.869 97.335 317.615 96.3483C318.362 95.3616 319.322 94.575 320.495 93.9883C321.695 93.375 323.122 93.0683 324.775 93.0683C326.322 93.0683 327.669 93.335 328.815 93.8683C329.962 94.375 330.909 95.095 331.655 96.0283C332.402 96.935 332.962 98.0016 333.335 99.2283C333.735 100.455 333.935 101.762 333.935 103.148C333.935 103.335 333.922 103.602 333.895 103.948C333.895 104.268 333.869 104.615 333.815 104.988H320.335C320.469 106.402 320.989 107.468 321.895 108.188C322.829 108.908 323.989 109.268 325.375 109.268C326.389 109.268 327.375 109.095 328.335 108.748C329.295 108.375 330.149 107.855 330.895 107.188L333.375 110.548C332.442 111.268 331.562 111.855 330.735 112.308C329.909 112.762 329.042 113.082 328.135 113.268C327.255 113.482 326.242 113.588 325.095 113.588ZM329.015 102.508C329.069 102.295 329.109 102.082 329.135 101.868C329.189 101.655 329.215 101.455 329.215 101.268C329.215 100.708 329.109 100.188 328.895 99.7083C328.682 99.2016 328.389 98.7616 328.015 98.3883C327.642 98.015 327.189 97.735 326.655 97.5483C326.149 97.335 325.562 97.2283 324.895 97.2283C323.909 97.2283 323.082 97.4283 322.415 97.8283C321.749 98.2283 321.242 98.7483 320.895 99.3883C320.575 100.002 320.375 100.642 320.295 101.308H330.695L329.015 102.508ZM338.95 121.348L342.95 111.668L335.51 93.4683H340.95L345.59 106.708L350.31 93.4683H355.67L344.35 121.348H338.95ZM375.627 113.188L367.227 85.3083H372.667L378.427 105.268L383.747 86.9083H388.867L394.147 105.268L399.947 85.3083H405.347L396.947 113.188H391.947L385.867 93.1083H386.707L380.667 113.188H375.627ZM408.288 113.188V85.3083H413.288V97.9483L412.448 98.0683C412.794 96.8683 413.301 95.9083 413.968 95.1883C414.661 94.4416 415.448 93.9083 416.328 93.5883C417.234 93.2416 418.141 93.0683 419.048 93.0683C421.288 93.0683 423.034 93.7083 424.288 94.9883C425.568 96.2416 426.208 98.015 426.208 100.308V113.188H421.208V102.148C421.208 100.495 420.914 99.295 420.328 98.5483C419.741 97.775 418.821 97.3883 417.568 97.3883C416.154 97.3883 415.088 97.895 414.368 98.9083C413.648 99.9216 413.288 101.535 413.288 103.748V113.188H408.288ZM430.826 113.188V93.4683H435.786V113.188H430.826ZM430.666 90.4283V85.3083H435.986V90.4283H430.666ZM445.27 113.588C443.91 113.588 442.79 113.175 441.91 112.348C441.03 111.522 440.59 110.215 440.59 108.428V85.3083H445.51V107.468C445.51 108.028 445.644 108.428 445.91 108.668C446.177 108.882 446.524 108.988 446.95 108.988C447.164 108.988 447.39 108.975 447.63 108.948C447.87 108.895 448.124 108.828 448.39 108.748V112.988C447.83 113.202 447.27 113.348 446.71 113.428C446.177 113.535 445.697 113.588 445.27 113.588ZM460.603 113.588C458.897 113.588 457.43 113.308 456.203 112.748C454.977 112.188 453.963 111.442 453.163 110.508C452.39 109.548 451.817 108.468 451.443 107.268C451.07 106.042 450.883 104.762 450.883 103.428C450.883 102.148 451.07 100.895 451.443 99.6683C451.817 98.4416 452.377 97.335 453.123 96.3483C453.87 95.3616 454.83 94.575 456.003 93.9883C457.203 93.375 458.63 93.0683 460.283 93.0683C461.83 93.0683 463.177 93.335 464.323 93.8683C465.47 94.375 466.417 95.095 467.163 96.0283C467.91 96.935 468.47 98.0016 468.843 99.2283C469.243 100.455 469.443 101.762 469.443 103.148C469.443 103.335 469.43 103.602 469.403 103.948C469.403 104.268 469.377 104.615 469.323 104.988H455.843C455.977 106.402 456.497 107.468 457.403 108.188C458.337 108.908 459.497 109.268 460.883 109.268C461.897 109.268 462.883 109.095 463.843 108.748C464.803 108.375 465.657 107.855 466.403 107.188L468.883 110.548C467.95 111.268 467.07 111.855 466.243 112.308C465.417 112.762 464.55 113.082 463.643 113.268C462.763 113.482 461.75 113.588 460.603 113.588ZM464.523 102.508C464.577 102.295 464.617 102.082 464.643 101.868C464.697 101.655 464.723 101.455 464.723 101.268C464.723 100.708 464.617 100.188 464.403 99.7083C464.19 99.2016 463.897 98.7616 463.523 98.3883C463.15 98.015 462.697 97.735 462.163 97.5483C461.657 97.335 461.07 97.2283 460.403 97.2283C459.417 97.2283 458.59 97.4283 457.923 97.8283C457.257 98.2283 456.75 98.7483 456.403 99.3883C456.083 100.002 455.883 100.642 455.803 101.308H466.203L464.523 102.508ZM134.792 161.188V150.268L124.992 133.308H130.912L137.232 145.148L143.792 133.308H149.672L139.952 150.268V161.188H134.792ZM157.992 161.588C156.072 161.588 154.365 161.148 152.872 160.268C151.378 159.388 150.192 158.175 149.312 156.628C148.458 155.055 148.032 153.282 148.032 151.308C148.032 149.308 148.458 147.548 149.312 146.028C150.165 144.482 151.338 143.268 152.832 142.388C154.352 141.508 156.072 141.068 157.992 141.068C159.885 141.068 161.578 141.508 163.072 142.388C164.565 143.268 165.738 144.482 166.592 146.028C167.445 147.548 167.872 149.308 167.872 151.308C167.872 153.282 167.445 155.042 166.592 156.588C165.738 158.135 164.565 159.362 163.072 160.268C161.578 161.148 159.885 161.588 157.992 161.588ZM157.992 157.228C159.005 157.228 159.872 156.988 160.592 156.508C161.338 156.028 161.898 155.348 162.272 154.468C162.672 153.588 162.872 152.535 162.872 151.308C162.872 150.055 162.672 149.002 162.272 148.148C161.898 147.268 161.338 146.602 160.592 146.148C159.872 145.668 159.005 145.428 157.992 145.428C156.952 145.428 156.058 145.668 155.312 146.148C154.565 146.602 153.992 147.268 153.592 148.148C153.192 149.002 152.992 150.055 152.992 151.308C152.992 152.535 153.192 153.588 153.592 154.468C153.992 155.348 154.565 156.028 155.312 156.508C156.058 156.988 156.952 157.228 157.992 157.228ZM178.802 161.588C177.202 161.588 175.856 161.268 174.762 160.628C173.696 159.988 172.896 159.082 172.362 157.908C171.856 156.735 171.602 155.362 171.602 153.788V141.468H176.562V152.548C176.562 153.455 176.669 154.268 176.882 154.988C177.096 155.682 177.469 156.242 178.002 156.668C178.562 157.068 179.322 157.268 180.282 157.268C181.456 157.268 182.336 156.935 182.922 156.268C183.536 155.602 183.949 154.682 184.162 153.508C184.402 152.308 184.522 150.908 184.522 149.308V141.468H189.482V161.188H184.522V156.908L185.202 157.308C184.616 158.828 183.749 159.922 182.602 160.588C181.456 161.255 180.189 161.588 178.802 161.588ZM205.051 161.188V133.308H212.611L219.971 153.548H219.051L226.371 133.308H233.931V161.188H228.771V139.348L229.251 139.428L222.011 158.748H217.011L209.771 139.428L210.211 139.348V161.188H205.051ZM248.109 161.588C246.189 161.588 244.482 161.148 242.989 160.268C241.496 159.388 240.309 158.175 239.429 156.628C238.576 155.055 238.149 153.282 238.149 151.308C238.149 149.308 238.576 147.548 239.429 146.028C240.282 144.482 241.456 143.268 242.949 142.388C244.469 141.508 246.189 141.068 248.109 141.068C250.002 141.068 251.696 141.508 253.189 142.388C254.682 143.268 255.856 144.482 256.709 146.028C257.562 147.548 257.989 149.308 257.989 151.308C257.989 153.282 257.562 155.042 256.709 156.588C255.856 158.135 254.682 159.362 253.189 160.268C251.696 161.148 250.002 161.588 248.109 161.588ZM248.109 157.228C249.122 157.228 249.989 156.988 250.709 156.508C251.456 156.028 252.016 155.348 252.389 154.468C252.789 153.588 252.989 152.535 252.989 151.308C252.989 150.055 252.789 149.002 252.389 148.148C252.016 147.268 251.456 146.602 250.709 146.148C249.989 145.668 249.122 145.428 248.109 145.428C247.069 145.428 246.176 145.668 245.429 146.148C244.682 146.602 244.109 147.268 243.709 148.148C243.309 149.002 243.109 150.055 243.109 151.308C243.109 152.535 243.309 153.588 243.709 154.468C244.109 155.348 244.682 156.028 245.429 156.508C246.176 156.988 247.069 157.228 248.109 157.228ZM267.496 161.188L259.416 141.468H264.856L269.496 154.708L274.216 141.468H279.576L271.576 161.188H267.496ZM290.76 161.588C289.053 161.588 287.586 161.308 286.36 160.748C285.133 160.188 284.12 159.442 283.32 158.508C282.546 157.548 281.973 156.468 281.6 155.268C281.226 154.042 281.04 152.762 281.04 151.428C281.04 150.148 281.226 148.895 281.6 147.668C281.973 146.442 282.533 145.335 283.28 144.348C284.026 143.362 284.986 142.575 286.16 141.988C287.36 141.375 288.786 141.068 290.44 141.068C291.986 141.068 293.333 141.335 294.48 141.868C295.626 142.375 296.573 143.095 297.32 144.028C298.066 144.935 298.626 146.002 299 147.228C299.4 148.455 299.6 149.762 299.6 151.148C299.6 151.335 299.586 151.602 299.56 151.948C299.56 152.268 299.533 152.615 299.48 152.988H286C286.133 154.402 286.653 155.468 287.56 156.188C288.493 156.908 289.653 157.268 291.04 157.268C292.053 157.268 293.04 157.095 294 156.748C294.96 156.375 295.813 155.855 296.56 155.188L299.04 158.548C298.106 159.268 297.226 159.855 296.4 160.308C295.573 160.762 294.706 161.082 293.8 161.268C292.92 161.482 291.906 161.588 290.76 161.588ZM294.68 150.508C294.733 150.295 294.773 150.082 294.8 149.868C294.853 149.655 294.88 149.455 294.88 149.268C294.88 148.708 294.773 148.188 294.56 147.708C294.346 147.202 294.053 146.762 293.68 146.388C293.306 146.015 292.853 145.735 292.32 145.548C291.813 145.335 291.226 145.228 290.56 145.228C289.573 145.228 288.746 145.428 288.08 145.828C287.413 146.228 286.906 146.748 286.56 147.388C286.24 148.002 286.04 148.642 285.96 149.308H296.36L294.68 150.508ZM303.32 161.188V155.908H308.6V161.188H303.32Z" fill="#1F1D1D"/>
<defs>
<clipPath id="clip0_474_327">
<rect width="59.9416" height="59.9416" fill="white" transform="translate(41.2109 479.066)"/>
</clipPath>
</defs>
</svg>
