<svg width="14" height="14" viewBox="0 0 14 14" fill="none" xmlns="http://www.w3.org/2000/svg">
<g clip-path="url(#clip0_2980_2317)">
<path d="M9.68887 0.200684C9.7882 0.200936 9.88641 0.22167 9.97736 0.261592C10.0683 0.301513 10.1501 0.359763 10.2175 0.432702L12.5487 2.98236C12.6775 3.12158 12.7488 3.30435 12.7485 3.49399V11.3554C12.7503 11.5506 12.6746 11.7384 12.538 11.8779C12.4015 12.0173 12.2152 12.0968 12.0201 12.0991H3.27819C3.08306 12.0968 2.89678 12.0173 2.76024 11.8779C2.62369 11.7384 2.54802 11.5506 2.54984 11.3554V0.944333C2.54984 0.533838 2.87619 0.200684 3.27819 0.200684H9.68887ZM11.8986 3.60022H9.68887C9.5987 3.60022 9.51224 3.56441 9.44848 3.50065C9.38473 3.4369 9.34891 3.35043 9.34891 3.26027V1.05057H3.39972V11.2492H11.8986V3.60022Z" fill="#EBE8EF"/>
<path d="M2.54938 1.05029H1.69949C1.47409 1.05029 1.25792 1.13983 1.09853 1.29922C0.93915 1.4586 0.849609 1.67477 0.849609 1.90018V12.9487C0.849609 13.1741 0.93915 13.3903 1.09853 13.5496C1.25792 13.709 1.47409 13.7986 1.69949 13.7986H10.1983C10.4237 13.7986 10.6399 13.709 10.7993 13.5496C10.9587 13.3903 11.0482 13.1741 11.0482 12.9487V12.0988H10.1983V12.9487H1.69949V1.90018H2.54938V1.05029Z" fill="#EBE8EF"/>
</g>
<defs>
<clipPath id="clip0_2980_2317">
<rect width="13.5982" height="13.5982" fill="white" transform="translate(0 0.200684)"/>
</clipPath>
</defs>
</svg>
