<svg width="15" height="14" viewBox="0 0 15 14" fill="none" xmlns="http://www.w3.org/2000/svg">
<g clip-path="url(#clip0_3094_3028)">
<path d="M10.3891 0.200684C10.4884 0.200936 10.5866 0.22167 10.6776 0.261592C10.7685 0.301513 10.8503 0.359763 10.9177 0.432702L13.2489 2.98236C13.3777 3.12158 13.449 3.30435 13.4486 3.49399V11.3554C13.4505 11.5506 13.3748 11.7384 13.2382 11.8779C13.1017 12.0173 12.9154 12.0968 12.7203 12.0991H3.97838C3.78325 12.0968 3.59698 12.0173 3.46043 11.8779C3.32389 11.7384 3.24822 11.5506 3.25003 11.3554V0.944333C3.25003 0.533838 3.57639 0.200684 3.97838 0.200684H10.3891ZM12.5988 3.60022H10.3891C10.2989 3.60022 10.2124 3.56441 10.1487 3.50065C10.0849 3.4369 10.0491 3.35043 10.0491 3.26027V1.05057H4.09992V11.2492H12.5988V3.60022Z" fill="#0B56B8"/>
<path d="M3.25055 1.05029H2.40067C2.17526 1.05029 1.95909 1.13983 1.79971 1.29922C1.64032 1.4586 1.55078 1.67477 1.55078 1.90018V12.9487C1.55078 13.1741 1.64032 13.3903 1.79971 13.5496C1.95909 13.709 2.17526 13.7986 2.40067 13.7986H10.8995C11.1249 13.7986 11.3411 13.709 11.5005 13.5496C11.6599 13.3903 11.7494 13.1741 11.7494 12.9487V12.0988H10.8995V12.9487H2.40067V1.90018H3.25055V1.05029Z" fill="#0B56B8"/>
</g>
<defs>
<clipPath id="clip0_3094_3028">
<rect width="13.5982" height="13.5982" fill="white" transform="translate(0.701172 0.200684)"/>
</clipPath>
</defs>
</svg>
