<svg width="24" height="23" viewBox="0 0 24 23" fill="none" xmlns="http://www.w3.org/2000/svg">
<path d="M8.47745 0.650604C5.68137 1.60834 3.29645 3.70361 1.97239 6.34545C1.50967 7.25834 1.17518 8.22863 0.976097 9.23165C0.468533 11.7255 0.821855 14.3804 1.97239 16.6554C2.71804 18.14 3.79146 19.4578 5.08996 20.4864C6.31762 21.4634 7.74436 22.1835 9.26167 22.5884C11.1709 23.1027 13.2083 23.0897 15.1363 22.6525C16.8783 22.2539 18.5238 21.4186 19.8349 20.2102C21.223 18.931 22.2131 17.2536 22.7403 15.4475C23.3125 13.4742 23.3896 11.3722 23.0295 9.35406C19.43 9.35406 15.8304 9.35406 12.2245 9.35406C12.2245 10.8454 12.2245 12.3429 12.2245 13.8342C14.3073 13.8342 16.3962 13.8342 18.4785 13.8342C18.2341 15.2677 17.3858 16.5725 16.1774 17.3823C15.4188 17.8898 14.5512 18.2243 13.6513 18.3786C12.7451 18.5328 11.8129 18.5521 10.913 18.3723C9.99387 18.1925 9.11953 17.8064 8.35505 17.2666C7.13367 16.4115 6.20194 15.152 5.72621 13.7441C5.23793 12.3107 5.2312 10.7104 5.72621 9.27694C6.06698 8.26764 6.63911 7.32919 7.39103 6.57098C8.31649 5.61952 9.51859 4.94472 10.8171 4.66852C11.9291 4.43087 13.0989 4.47571 14.1853 4.80348C15.1108 5.0864 15.9595 5.58769 16.6599 6.25622C17.367 5.55541 18.0674 4.84876 18.7744 4.14795C19.1408 3.76862 19.5331 3.40857 19.8927 3.01669C18.8256 2.02667 17.5661 1.22991 16.1967 0.728621C13.7414 -0.19145 10.9583 -0.21073 8.47745 0.650604Z" fill="white"/>
<path d="M8.47783 0.650607C10.9587 -0.210726 13.7422 -0.191446 16.2101 0.721451C17.579 1.22274 18.8327 2.01995 19.9061 3.00952C19.546 3.39513 19.1604 3.76145 18.7878 4.14078C18.0807 4.84159 17.3804 5.54824 16.6733 6.24905C15.9725 5.58052 15.1241 5.07296 14.1987 4.79631C13.1123 4.46854 11.9424 4.42371 10.8305 4.66135C9.53196 4.93755 8.33031 5.61908 7.40441 6.56381C6.65248 7.32247 6.08035 8.26092 5.73959 9.26977C4.48637 8.29903 3.23271 7.32202 1.97949 6.35173C3.29683 3.70361 5.68175 1.60834 8.47783 0.650607Z" fill="#E94435"/>
<path d="M0.976097 9.23167C1.17518 8.22909 1.51594 7.25836 1.97239 6.34546C3.22561 7.3162 4.47927 8.29321 5.73249 9.2635C5.23748 10.697 5.2442 12.2972 5.73249 13.7307C4.47927 14.7014 3.22561 15.6784 1.97239 16.6487C0.821855 14.3867 0.468533 11.7255 0.976097 9.23167Z" fill="#F8BB15"/>
<path d="M12.2305 9.34735C15.83 9.34735 19.4296 9.34735 23.0355 9.34735C23.3955 11.3655 23.3184 13.4675 22.7463 15.4408C22.2194 17.2469 21.2294 18.931 19.8408 20.2035C18.6261 19.2587 17.4047 18.3136 16.1964 17.3688C17.4047 16.5653 18.2531 15.2543 18.4974 13.8208C16.4147 13.8208 14.3257 13.8208 12.2435 13.8208C12.2242 12.3362 12.2305 10.8449 12.2305 9.34735Z" fill="#547DBE"/>
<path d="M1.97266 16.6554C3.22587 15.6847 4.47954 14.7077 5.73275 13.7374C6.20848 15.1516 7.14021 16.4048 8.36159 17.2599C9.12652 17.7997 10.0004 18.179 10.9196 18.3656C11.8195 18.5453 12.7579 18.5261 13.6578 18.3718C14.5577 18.2176 15.4253 17.8835 16.184 17.3755C17.3986 18.3203 18.62 19.2654 19.8284 20.2102C18.5173 21.4248 16.8718 22.2543 15.1298 22.6525C13.2081 23.0897 11.1702 23.1022 9.25521 22.5884C7.73834 22.1835 6.31116 21.4634 5.0835 20.4864C3.79172 19.4515 2.71831 18.1337 1.97266 16.6554Z" fill="#34A751"/>
</svg>
