<svg width="62" height="62" viewBox="0 0 62 62" fill="none" xmlns="http://www.w3.org/2000/svg">
<path d="M25.3693 17.3295C27.1416 11.8749 34.8584 11.8749 36.6307 17.3295C37.4233 19.7689 39.6965 21.4205 42.2614 21.4205C47.9967 21.4205 50.3813 28.7596 45.7414 32.1307C43.6663 33.6383 42.798 36.3106 43.5906 38.75C45.3629 44.2046 39.1199 48.7404 34.48 45.3693C32.4049 43.8617 29.5951 43.8617 27.52 45.3693C22.8801 48.7404 16.6371 44.2046 18.4094 38.75C19.202 36.3106 18.3337 33.6383 16.2586 32.1307C11.6187 28.7596 14.0033 21.4205 19.7386 21.4205C22.3035 21.4205 24.5767 19.7689 25.3693 17.3295Z" fill="#04A15F"/>
<g clip-path="url(#clip0_3551_1578)">
<path d="M36.988 24.4806C34.9447 26.2491 33.2159 27.9325 31.6332 30.1289C30.9353 31.0977 30.159 32.2379 29.6517 33.3144C29.362 33.8852 28.8399 34.7772 28.6618 35.6348C27.6883 34.729 26.6425 33.7009 25.5725 32.8957C24.8099 32.3219 22.6132 33.4917 23.5074 34.1645C25.1099 35.3698 26.4427 36.8712 28.0014 38.1303C28.6534 38.6563 30.0983 37.5139 30.4378 37.0346C31.5524 35.4556 31.7047 33.5253 32.517 31.8029C33.7572 29.1686 35.9568 27.0047 38.1285 25.1256C39.5673 23.7836 38.0812 23.5361 36.9902 24.4806" fill="#FBFBFB"/>
</g>
<defs>
<clipPath id="clip0_3551_1578">
<rect width="15.5" height="15.5" fill="white" transform="translate(23.25 23.25)"/>
</clipPath>
</defs>
</svg>
