<svg width="24" height="24" viewBox="0 0 24 24" fill="none" xmlns="http://www.w3.org/2000/svg">
<path d="M21.2754 1.90512C18.1115 4.64337 15.4347 7.25 12.9841 10.6509C11.9033 12.1509 10.7015 13.9164 9.91585 15.5832C9.46735 16.4671 8.65885 17.8482 8.38322 19.1761C6.87572 17.7736 5.25647 16.1817 3.59972 14.9349C2.41885 14.0465 -0.982401 15.8577 0.402099 16.8995C2.88347 18.7659 4.9471 21.0905 7.3606 23.0401C8.3701 23.8546 10.6073 22.0857 11.1331 21.3436C12.8588 18.8986 13.0947 15.9099 14.3525 13.2429C16.2729 9.164 19.6786 5.81337 23.0412 2.90375C25.2691 0.825872 22.9681 0.442622 21.2787 1.90512" fill="#37B34A"/>
</svg>
