<svg width="25" height="25" viewBox="0 0 25 25" fill="none" xmlns="http://www.w3.org/2000/svg">
<g clip-path="url(#clip0_2980_2312)">
<path d="M24.4452 1.52871C24.4997 1.39241 24.5131 1.2431 24.4836 1.09929C24.4541 0.955474 24.383 0.82348 24.2792 0.71967C24.1754 0.61586 24.0434 0.5448 23.8996 0.515299C23.7558 0.485798 23.6065 0.499153 23.4702 0.553709L1.64967 9.28221H1.64817L0.970172 9.55221C0.841757 9.60343 0.73 9.68915 0.647245 9.7999C0.56449 9.91066 0.513959 10.0421 0.501232 10.1798C0.488505 10.3175 0.514078 10.456 0.575127 10.58C0.636176 10.7041 0.730324 10.8088 0.847172 10.8827L1.46217 11.2727L1.46367 11.2757L8.95617 16.0427L13.7232 23.5352L13.7262 23.5382L14.1162 24.1532C14.1903 24.2696 14.2951 24.3633 14.4191 24.424C14.543 24.4846 14.6813 24.5099 14.8187 24.497C14.9561 24.4842 15.0873 24.4336 15.1978 24.351C15.3084 24.2684 15.3939 24.1569 15.4452 24.0287L24.4452 1.52871ZM21.6957 4.36371L10.4547 15.6047L10.1322 15.0977C10.0731 15.0047 9.99421 14.9258 9.90117 14.8667L9.39417 14.5442L20.6352 3.30321L22.4022 2.59671L21.6957 4.36371Z" fill="#0B56B8"/>
</g>
<defs>
<clipPath id="clip0_2980_2312">
<rect width="24" height="24" fill="white" transform="translate(0.5 0.5)"/>
</clipPath>
</defs>
</svg>
