<svg width="64" height="64" viewBox="0 0 64 64" fill="none" xmlns="http://www.w3.org/2000/svg">
<rect width="64" height="64" rx="32" fill="#BDBDBD"/>
<path d="M48.4985 15.501H15.4985C14.7029 15.501 13.9398 15.817 13.3772 16.3797C12.8146 16.9423 12.4985 17.7053 12.4985 18.501V45.501C12.4985 46.2966 12.8146 47.0597 13.3772 47.6223C13.9398 48.1849 14.7029 48.501 15.4985 48.501H48.4985C49.2942 48.501 50.0572 48.1849 50.6199 47.6223C51.1825 47.0597 51.4985 46.2966 51.4985 45.501V18.501C51.4985 17.7053 51.1825 16.9423 50.6199 16.3797C50.0572 15.817 49.2942 15.501 48.4985 15.501ZM48.4985 18.501V37.7666L43.6104 32.8804C43.3318 32.6017 43.0011 32.3807 42.6371 32.2299C42.273 32.079 41.8829 32.0014 41.4888 32.0014C41.0948 32.0014 40.7047 32.079 40.3406 32.2299C39.9766 32.3807 39.6459 32.6017 39.3673 32.8804L35.6173 36.6304L27.3673 28.3804C26.8047 27.8182 26.042 27.5024 25.2467 27.5024C24.4514 27.5024 23.6886 27.8182 23.126 28.3804L15.4985 36.0079V18.501H48.4985ZM15.4985 40.251L25.2485 30.501L40.2485 45.501H15.4985V40.251ZM48.4985 45.501H44.4917L37.7417 38.751L41.4917 35.001L48.4985 42.0097V45.501ZM34.9985 26.751C34.9985 26.306 35.1305 25.871 35.3777 25.5009C35.625 25.1309 35.9764 24.8425 36.3875 24.6722C36.7986 24.5019 37.251 24.4574 37.6875 24.5442C38.1239 24.631 38.5249 24.8453 38.8395 25.16C39.1542 25.4747 39.3685 25.8756 39.4553 26.312C39.5421 26.7485 39.4976 27.2009 39.3273 27.612C39.157 28.0231 38.8686 28.3745 38.4986 28.6218C38.1286 28.869 37.6935 29.001 37.2485 29.001C36.6518 29.001 36.0795 28.7639 35.6575 28.342C35.2356 27.92 34.9985 27.3477 34.9985 26.751Z" fill="#808080"/>
</svg>
