<svg width="20" height="28" viewBox="0 0 20 28" fill="none" xmlns="http://www.w3.org/2000/svg">
<path d="M13.8107 27.7266C13.9047 27.82 14.0185 27.8927 14.1443 27.9396C14.2702 27.9865 14.4051 28.0065 14.5397 27.9982C14.6743 27.9899 14.8054 27.9535 14.9241 27.8915C15.0427 27.8295 15.146 27.7434 15.2269 27.6392C18.2096 23.6761 19.8125 18.9004 19.8047 14.0005C19.8047 8.90531 18.1075 4.19117 15.2269 0.361866C15.1462 0.257479 15.043 0.171245 14.9244 0.109104C14.8058 0.0469628 14.6747 0.0103921 14.5401 0.0019113C14.4055 -0.00656949 14.2706 0.0132412 14.1447 0.0599786C14.0187 0.106716 13.9048 0.179269 13.8107 0.272639C13.6451 0.435097 13.5445 0.64907 13.5269 0.876462C13.5093 1.10385 13.5757 1.32991 13.7145 1.51438C16.4296 5.14876 17.8875 9.51852 17.8804 14.0005C17.8804 18.6608 16.3372 22.9734 13.7164 26.4848C13.4316 26.8659 13.4663 27.3957 13.8107 27.7266Z" fill="white"/>
<path d="M9.66132 23.7207C9.75698 23.8164 9.87354 23.8904 10.0025 23.9373C10.1315 23.9841 10.2696 24.0025 10.4069 23.9913C10.5442 23.9801 10.6772 23.9395 10.7962 23.8724C10.9152 23.8053 11.0172 23.7135 11.0949 23.6036C13.0168 20.7453 14.037 17.4089 14.0312 14.0005C14.0312 10.4594 12.9537 7.15983 11.0949 4.39753C11.0177 4.28702 10.9158 4.19463 10.7968 4.12714C10.6778 4.05966 10.5446 4.0188 10.4071 4.00757C10.2696 3.99633 10.1312 4.01501 10.0022 4.06223C9.8731 4.10945 9.75663 4.184 9.66132 4.28042C9.5013 4.4388 9.40176 4.64502 9.37904 4.86525C9.35631 5.08548 9.41174 5.30662 9.53624 5.49241C11.2198 8.03169 12.1122 10.985 12.107 14.0005C12.1118 17.0154 11.2195 19.9681 9.53624 22.5068C9.28225 22.8897 9.32843 23.3991 9.66132 23.7207ZM5.46074 19.6627C5.89562 20.0828 6.62489 20.0066 6.90391 19.4768C7.79743 17.7806 8.26169 15.9038 8.25856 14.0005C8.25856 12.0301 7.76981 10.1675 6.90391 8.52426C6.62489 7.99447 5.89562 7.91826 5.46074 8.33837L5.43188 8.36625C5.124 8.66367 5.06628 9.12282 5.2587 9.50203C5.96904 10.9022 6.33705 12.4413 6.33434 14.0005C6.33434 15.6141 5.94757 17.1421 5.25677 18.499C5.06435 18.8764 5.12208 19.3355 5.43188 19.633L5.46074 19.6627ZM1.63924 15.971C2.01639 16.3353 2.63983 16.339 2.90922 15.8966C3.26258 15.3231 3.44875 14.6679 3.44801 14.0005C3.44875 13.3331 3.26258 12.678 2.90922 12.1045C2.63983 11.6621 2.01639 11.6658 1.63924 12.0301L0.280737 13.3425C0.100368 13.5168 -0.000957489 13.7532 -0.000957489 13.9996C-0.000957489 14.2461 0.100368 14.4824 0.280737 14.6567L1.63924 15.971Z" fill="white"/>
</svg>
