<svg width="33" height="46" viewBox="0 0 33 46" fill="none" xmlns="http://www.w3.org/2000/svg">
<path d="M22.6894 45.5508C22.8437 45.7043 23.0307 45.8237 23.2375 45.9008C23.4442 45.9778 23.6658 46.0106 23.8869 45.997C24.1081 45.9833 24.3235 45.9236 24.5184 45.8217C24.7134 45.7199 24.8831 45.5785 25.016 45.4072C29.9161 38.8964 32.5495 31.0506 32.5366 23.0009C32.5366 14.6302 29.7484 6.8855 25.016 0.594493C24.8834 0.423001 24.7138 0.281331 24.519 0.179242C24.3242 0.0771532 24.1088 0.0170727 23.8877 0.00314C23.6665 -0.0107927 23.4449 0.0217534 23.238 0.0985362C23.0311 0.175319 22.844 0.294513 22.6894 0.447907C22.4173 0.714802 22.252 1.06633 22.2231 1.4399C22.1941 1.81347 22.3033 2.18485 22.5313 2.4879C26.9918 8.45868 29.387 15.6376 29.3754 23.0009C29.3754 30.657 26.8401 37.742 22.5345 43.5108C22.0666 44.1368 22.1235 45.0072 22.6894 45.5508Z" fill="white"/>
<path d="M15.8738 38.9696C16.031 39.127 16.2224 39.2485 16.4343 39.3255C16.6462 39.4024 16.8732 39.4327 17.0987 39.4143C17.3242 39.3959 17.5427 39.3291 17.7382 39.2189C17.9337 39.1087 18.1013 38.9579 18.2289 38.7772C21.3864 34.0815 23.0624 28.6003 23.0529 23.0009C23.0529 17.1832 21.2827 11.7625 18.2289 7.22447C18.1021 7.04292 17.9348 6.89114 17.7392 6.78027C17.5437 6.66941 17.3249 6.60228 17.099 6.58383C16.8731 6.56537 16.6458 6.59606 16.4338 6.67363C16.2217 6.7512 16.0304 6.87368 15.8738 7.03208C15.6109 7.29228 15.4474 7.63107 15.4101 7.99288C15.3727 8.35468 15.4638 8.71799 15.6683 9.02321C18.4342 13.1949 19.9002 18.0468 19.8917 23.0009C19.8996 27.9538 18.4336 32.8046 15.6683 36.9754C15.251 37.6045 15.3269 38.4413 15.8738 38.9696ZM8.97286 32.303C9.68729 32.9932 10.8854 32.868 11.3438 31.9976C12.8117 29.2109 13.5744 26.1276 13.5693 23.0009C13.5693 19.7637 12.7663 16.7037 11.3438 14.0041C10.8854 13.1337 9.68729 13.0085 8.97286 13.6987L8.92544 13.7445C8.41965 14.2331 8.32481 14.9875 8.64093 15.6104C9.80792 17.9107 10.4125 20.4392 10.4081 23.0009C10.4081 25.6516 9.77265 28.1619 8.63777 30.3913C8.32165 31.0112 8.41648 31.7655 8.92544 32.2541L8.97286 32.303ZM2.69467 26.238C3.31427 26.8365 4.33851 26.8426 4.78108 26.1158C5.3616 25.1736 5.66745 24.0973 5.66622 23.0009C5.66745 21.9044 5.3616 20.8281 4.78108 19.8859C4.33851 19.1591 3.31427 19.1652 2.69467 19.7637L0.462851 21.9198C0.166533 22.2061 6.67572e-05 22.5944 6.67572e-05 22.9993C6.67572e-05 23.4042 0.166533 23.7925 0.462851 24.0789L2.69467 26.238Z" fill="white"/>
</svg>
